<?xml version="1.0" standalone="no"?>
<!DOCTYPE svg PUBLIC "-//W3C//DTD SVG 20010904//EN"
 "http://www.w3.org/TR/2001/REC-SVG-20010904/DTD/svg10.dtd">
<svg version="1.0" xmlns="http://www.w3.org/2000/svg"
 width="355.000000pt" height="114.000000pt" viewBox="0 0 355.000000 114.000000"
 preserveAspectRatio="xMidYMid meet">
<metadata>
Created by potrace 1.10, written by Peter Selinger 2001-2011
</metadata>
<g transform="translate(0.000000,114.000000) scale(0.100000,-0.100000)"
fill="#000000" stroke="none">
<path d="M713 1063 c-7 -3 -13 -11 -13 -19 0 -8 -10 -14 -22 -14 -13 0 -30 -4
-38 -10 -9 -5 -19 -5 -27 2 -7 5 -23 8 -36 4 -17 -4 -30 0 -42 14 -20 23 -65
26 -95 8 -15 -10 -22 -10 -32 0 -9 9 -15 9 -27 -2 -24 -20 -101 -28 -108 -11
-13 35 -86 23 -98 -15 -4 -12 -1 -27 5 -35 10 -12 10 -18 -1 -31 -11 -14 -10
-19 10 -35 13 -11 36 -19 51 -19 15 0 33 -7 40 -15 18 -21 67 -19 81 4 10 14
22 17 61 14 42 -3 51 0 55 16 8 30 50 33 68 5 16 -25 58 -33 70 -14 5 8 11 8
20 0 21 -18 45 -1 45 33 0 36 16 26 22 -13 3 -25 5 -25 98 -26 52 -1 103 3
112 7 9 5 19 5 22 0 3 -4 32 -7 65 -7 50 2 61 -1 64 -16 6 -21 20 -23 39 -5
28 25 55 35 69 26 43 -27 82 3 76 60 -6 53 -45 79 -75 49 -9 -9 -15 -9 -24 0
-14 14 -57 16 -77 3 -9 -6 -21 -5 -32 2 -13 8 -24 8 -44 -1 -28 -13 -58 -2
-83 31 -11 14 -17 15 -28 6 -8 -6 -14 -17 -14 -23 0 -7 -22 -11 -60 -11 -38 0
-60 4 -60 11 0 16 -23 32 -37 27z m19 -50 c-4 -37 -4 -38 15 -20 11 9 26 17
34 17 8 0 4 -7 -9 -16 -20 -14 -22 -18 -9 -33 25 -29 29 -41 13 -41 -8 0 -18
9 -21 20 -3 11 -11 20 -17 20 -6 0 -8 -9 -5 -20 3 -13 0 -20 -9 -20 -11 0 -14
16 -14 65 0 47 4 65 13 65 9 0 12 -11 9 -37z m174 14 c-5 -20 -2 -23 22 -22
25 0 27 -4 30 -42 2 -26 -1 -43 -7 -43 -6 0 -11 16 -11 35 0 24 -5 35 -15 35
-10 0 -15 -11 -15 -35 0 -24 -5 -35 -15 -35 -12 0 -15 14 -15 65 0 53 3 65 16
65 12 0 15 -6 10 -23z m-652 7 c28 -11 17 -24 -14 -17 -38 7 -40 -14 -3 -28
15 -6 31 -15 35 -22 12 -20 -11 -47 -41 -47 -30 0 -59 24 -42 34 5 4 12 2 16
-4 10 -16 45 -12 45 5 0 8 -6 15 -13 15 -7 0 -23 7 -35 16 -41 28 1 67 52 48z
m156 -8 c0 -8 6 -17 13 -20 10 -5 10 -7 0 -12 -15 -7 -17 -54 -3 -54 6 0 10
-4 10 -10 0 -5 -9 -10 -20 -10 -20 0 -38 39 -26 59 3 5 0 12 -6 15 -10 5 -10
7 -1 12 7 3 9 12 6 20 -3 8 1 14 11 14 9 0 16 -6 16 -14z m124 -8 c15 -25 -3
-52 -38 -56 -18 -2 -26 -9 -26 -23 0 -10 -6 -19 -13 -19 -8 0 -12 18 -12 60
l0 61 39 -3 c24 -2 43 -10 50 -20z m-182 -33 c-5 -19 -17 -32 -33 -36 -21 -6
-21 -7 -3 -8 11 -1 28 -7 38 -14 16 -12 16 -14 3 -26 -9 -7 -28 -11 -44 -9
-31 3 -36 21 -24 81 5 25 13 33 36 38 17 3 31 5 32 4 1 0 -1 -14 -5 -30z m270
-1 c15 -33 1 -58 -35 -62 -34 -4 -55 34 -38 67 17 30 58 28 73 -5z m78 16 c0
-4 -8 -10 -18 -12 -15 -4 -18 -12 -14 -37 3 -24 1 -31 -12 -31 -12 0 -16 10
-16 43 0 42 1 44 30 45 17 0 30 -3 30 -8z m168 -7 c2 -9 -5 -11 -27 -7 -29 6
-31 4 -31 -21 0 -25 2 -27 31 -21 22 4 29 2 27 -7 -6 -17 -46 -21 -64 -7 -17
15 -18 52 -2 68 16 16 60 12 66 -5z m184 -9 c15 -33 1 -58 -35 -62 -34 -4 -55
34 -38 67 17 30 58 28 73 -5z m99 4 c17 -32 -4 -72 -37 -65 -20 4 -24 1 -19
-14 4 -13 1 -19 -9 -19 -13 0 -16 12 -16 58 l0 59 35 1 c26 1 37 -4 46 -20z
m78 7 c-1 -5 -10 -9 -21 -7 -27 5 -22 -7 8 -18 36 -14 29 -45 -10 -45 -16 0
-31 5 -33 11 -2 7 6 10 22 7 32 -7 32 5 0 17 -24 9 -32 29 -18 44 11 10 54 3
52 -9z"/>
<path d="M470 1000 c0 -16 5 -21 23 -18 12 2 22 10 22 18 0 8 -10 16 -22 18
-18 3 -23 -2 -23 -18z"/>
<path d="M310 980 c0 -11 5 -20 10 -20 6 0 10 9 10 20 0 11 -4 20 -10 20 -5 0
-10 -9 -10 -20z"/>
<path d="M308 908 c9 -9 15 -9 24 0 9 9 7 12 -12 12 -19 0 -21 -3 -12 -12z"/>
<path d="M566 981 c-10 -16 5 -42 23 -39 21 4 21 42 -1 46 -9 2 -19 -1 -22 -7z"/>
<path d="M996 981 c-10 -16 5 -42 23 -39 21 4 21 42 -1 46 -9 2 -19 -1 -22 -7z"/>
<path d="M1094 965 c1 -26 30 -36 38 -12 8 20 -2 37 -22 37 -13 0 -17 -7 -16
-25z"/>
<path d="M1325 1019 c-12 -18 -14 -108 -4 -115 16 -10 232 -4 244 6 7 6 15 6
21 0 8 -8 65 -12 134 -9 8 0 44 1 80 1 115 0 140 3 151 18 8 13 11 13 19 -1 8
-14 29 -17 132 -17 68 0 128 4 134 9 7 6 22 5 39 -3 24 -11 29 -10 41 7 13 17
12 59 -1 103 -5 15 -37 16 -52 1 -8 -8 -17 -7 -31 2 -17 11 -28 11 -57 0 -23
-8 -40 -9 -48 -3 -7 5 -39 10 -72 10 -45 0 -65 -5 -81 -20 -21 -19 -21 -19
-27 1 -6 23 -36 28 -55 9 -8 -8 -15 -8 -24 -1 -7 6 -57 10 -111 10 -104 0
-120 -7 -109 -51 3 -14 1 -18 -6 -11 -6 6 -12 21 -14 35 -3 23 -8 25 -58 27
-39 1 -60 -3 -73 -15 -17 -15 -19 -15 -28 0 -7 13 -24 17 -74 17 -36 0 -67 -4
-70 -10z m62 -26 c4 -10 -2 -23 -15 -34 -28 -22 -27 -27 1 -32 16 -3 13 -5
-10 -6 -38 -1 -45 22 -13 39 11 6 20 17 20 25 0 18 -12 19 -28 3 -7 -7 -12 -8
-12 -2 0 28 47 34 57 7z m68 -28 c0 -36 -3 -40 -24 -40 -13 0 -27 7 -29 15 -4
13 -3 13 11 2 9 -8 22 -10 28 -6 9 5 7 11 -6 21 -11 7 -13 13 -7 13 7 0 12 7
12 15 0 18 -12 19 -28 3 -7 -7 -12 -8 -12 -2 0 17 13 25 35 22 16 -2 20 -10
20 -43z m105 31 c26 -32 -7 -87 -44 -73 -16 6 -23 66 -9 80 11 12 40 8 53 -7z
m50 -33 c-4 -47 -5 -47 -8 -10 -2 20 -7 35 -13 32 -5 -3 -6 1 -3 9 3 9 11 16
18 16 7 0 10 -16 6 -47z m107 30 c4 -11 -3 -24 -22 -39 l-28 -22 29 -5 29 -4
-32 -2 c-38 -1 -45 22 -13 39 11 6 20 17 20 25 0 18 -12 19 -28 3 -7 -7 -12
-8 -12 -2 0 28 47 34 57 7z m73 3 c26 -32 -7 -87 -44 -73 -16 6 -23 66 -9 80
11 12 40 8 53 -7z m77 -3 c4 -11 -3 -24 -22 -39 l-28 -22 29 -5 c25 -3 24 -4
-9 -6 -34 -1 -37 1 -28 18 6 10 17 21 26 25 8 3 15 12 15 21 0 18 -12 19 -28
3 -7 -7 -12 -8 -12 -2 0 28 47 34 57 7z m65 -9 c-3 -16 1 -30 9 -35 11 -7 11
-9 1 -9 -7 0 -10 -4 -7 -10 3 -5 1 -10 -4 -10 -6 0 -11 4 -11 9 0 5 -11 11
-25 13 l-24 3 20 33 c26 39 48 43 41 6z m109 5 c16 -31 -4 -71 -34 -67 -39 5
-37 88 2 88 11 0 25 -10 32 -21z m79 -5 c13 -34 -4 -66 -33 -62 -23 3 -35 43
-23 74 9 24 46 16 56 -12z m110 7 c15 -30 -4 -73 -31 -69 -26 4 -39 35 -28 66
10 27 44 29 59 3z m72 -7 c-3 -16 1 -30 9 -35 11 -7 11 -9 1 -9 -7 0 -10 -4
-7 -10 3 -5 1 -10 -4 -10 -6 0 -11 4 -11 9 0 5 -11 11 -25 13 l-24 3 20 33
c26 39 48 43 41 6z m-142 -4 c0 -5 -4 -10 -10 -10 -5 0 -10 5 -10 10 0 6 5 10
10 10 6 0 10 -4 10 -10z m-670 -50 c0 -5 -4 -10 -10 -10 -5 0 -10 5 -10 10 0
6 5 10 10 10 6 0 10 -4 10 -10z m160 0 c0 -5 -4 -10 -10 -10 -5 0 -10 5 -10
10 0 6 5 10 10 10 6 0 10 -4 10 -10z m510 0 c0 -5 -7 -10 -16 -10 -8 0 -12 5
-9 10 3 6 10 10 16 10 5 0 9 -4 9 -10z"/>
<path d="M1518 983 c-6 -27 2 -55 15 -50 15 5 16 59 1 64 -6 2 -13 -4 -16 -14z"/>
<path d="M1748 983 c-6 -27 2 -55 15 -50 15 5 16 59 1 64 -6 2 -13 -4 -16 -14z"/>
<path d="M1902 970 c-10 -17 -10 -20 3 -20 8 0 15 9 15 20 0 11 -1 20 -3 20
-1 0 -8 -9 -15 -20z"/>
<path d="M1998 983 c-6 -27 2 -55 15 -50 15 5 16 59 1 64 -6 2 -13 -4 -16 -14z"/>
<path d="M2074 986 c-9 -23 0 -51 16 -51 10 0 15 10 15 29 0 32 -21 47 -31 22z"/>
<path d="M2184 986 c-9 -23 0 -51 16 -51 10 0 15 10 15 29 0 32 -21 47 -31 22z"/>
<path d="M2272 970 c-10 -17 -10 -20 3 -20 8 0 15 9 15 20 0 11 -1 20 -3 20
-1 0 -8 -9 -15 -20z"/>
<path d="M195 821 c-33 -7 -46 -37 -21 -47 11 -4 16 -19 16 -49 0 -52 21 -75
51 -57 11 7 25 9 32 5 6 -4 49 -8 94 -10 74 -2 84 -1 93 18 31 57 -19 130 -74
109 -25 -9 -33 -7 -62 15 -33 25 -67 30 -129 16z m105 -30 c0 -13 8 -21 23
-23 18 -2 23 -11 28 -45 4 -33 2 -43 -9 -43 -10 0 -13 11 -10 38 2 28 -1 37
-12 37 -10 0 -16 -12 -18 -37 -5 -63 -22 -42 -22 27 0 37 4 65 10 65 6 0 10
-9 10 -19z m-47 2 c-21 -4 -23 -10 -23 -59 0 -32 -4 -54 -11 -54 -7 0 -10 20
-7 55 3 51 2 54 -22 58 -14 2 0 4 30 4 30 0 45 -2 33 -4z m185 -35 c21 -21 13
-38 -18 -38 -16 0 -30 -4 -30 -9 0 -16 20 -23 34 -12 14 12 29 4 20 -10 -8
-13 -48 -11 -62 3 -26 26 -7 78 28 78 9 0 21 -5 28 -12z"/>
<path d="M397 754 c-13 -13 -7 -24 14 -24 11 0 19 5 17 12 -5 14 -22 21 -31
12z"/>
<path d="M492 818 c-17 -17 -16 -133 2 -147 8 -6 46 -10 94 -10 60 2 87 -2
106 -14 32 -21 84 -22 107 -1 13 12 38 16 93 16 42 0 78 4 82 9 3 5 15 -2 26
-16 27 -34 78 -34 123 1 21 16 39 23 47 18 7 -4 61 -9 120 -11 96 -2 109 0
121 17 12 18 14 18 24 1 10 -15 30 -17 181 -18 196 -1 206 3 195 71 -6 36 -45
77 -60 62 -3 -3 -12 3 -20 14 -18 25 -31 25 -59 -1 -21 -19 -32 -22 -89 -18
-11 1 -31 0 -45 -1 -14 -1 -35 1 -47 5 -16 5 -29 0 -47 -18 l-25 -25 -3 31
c-4 43 -31 57 -60 30 -29 -26 -64 -37 -73 -23 -4 7 -17 9 -30 6 -14 -4 -28 0
-35 9 -15 18 -39 19 -62 1 -11 -8 -34 -11 -61 -9 -36 4 -49 0 -72 -19 l-28
-24 -24 24 c-17 17 -30 22 -46 17 -12 -3 -43 -6 -69 -5 -74 2 -121 3 -143 2
-32 -2 -102 -2 -147 0 -17 0 -30 8 -33 19 -7 22 -25 25 -43 7z m28 -68 c0 -66
17 -83 22 -22 2 31 7 38 27 40 15 3 30 -3 38 -14 20 -28 16 -34 -24 -34 -35 0
-36 -1 -21 -17 14 -13 20 -14 32 -3 13 10 16 10 16 -3 0 -13 -11 -16 -55 -16
l-55 1 0 64 c0 36 4 64 10 64 6 0 10 -27 10 -60z m870 -5 c0 -65 0 -65 -28
-65 -34 0 -52 16 -52 46 0 27 24 48 48 42 15 -4 18 -1 14 18 -2 14 0 24 7 24
7 0 11 -24 11 -65z m320 0 c0 -65 0 -65 -28 -65 -34 0 -52 16 -52 46 0 27 24
48 48 42 15 -4 18 -1 14 18 -2 14 0 24 7 24 7 0 11 -24 11 -65z m-510 45 c0
-5 -4 -10 -10 -10 -5 0 -10 5 -10 10 0 6 5 10 10 10 6 0 10 -4 10 -10z m-416
-37 c-9 -39 -13 -43 -35 -43 -10 0 -19 -4 -19 -10 0 -5 14 -10 31 -10 24 0 30
-4 27 -17 -2 -13 -13 -18 -38 -18 l-35 0 0 48 c0 57 9 67 68 76 4 0 4 -11 1
-26z m310 0 c-9 -39 -13 -43 -35 -43 -10 0 -19 -4 -19 -10 0 -5 14 -10 31 -10
24 0 30 -4 27 -17 -2 -13 -13 -18 -38 -18 -35 0 -35 0 -36 48 -1 55 10 67 69
76 4 0 4 -11 1 -26z m-396 -30 l3 -43 -36 0 c-32 0 -36 3 -33 23 2 14 11 23
26 25 29 4 22 28 -7 25 -14 -2 -20 1 -16 8 4 5 19 9 33 7 24 -3 27 -8 30 -45z
m130 10 c-2 -29 1 -38 12 -38 10 0 16 12 18 38 5 53 22 46 22 -9 0 -45 0 -45
-32 -42 -31 3 -33 6 -36 46 -2 26 1 42 8 42 7 0 10 -14 8 -37z m143 10 c8 -21
5 -23 -28 -23 -35 0 -36 -1 -21 -17 15 -14 19 -14 34 -2 15 12 17 12 12 -1 -2
-8 -17 -16 -31 -18 -35 -4 -55 33 -37 67 15 29 60 25 71 -6z m182 12 c-18 -12
-21 -22 -16 -45 3 -19 1 -30 -6 -30 -6 0 -11 18 -11 43 0 39 2 43 27 45 l28 2
-22 -15z m47 -30 c0 -25 -4 -45 -10 -45 -5 0 -10 20 -10 45 0 25 5 45 10 45 6
0 10 -20 10 -45z m88 -2 c2 -27 -1 -43 -8 -43 -7 0 -10 14 -8 38 2 28 -1 37
-12 37 -10 0 -16 -12 -18 -37 -5 -54 -22 -47 -22 8 0 45 0 45 33 42 30 -3 32
-6 35 -45z m232 28 c15 -29 13 -31 -27 -31 -35 0 -36 -1 -21 -17 14 -13 20
-14 32 -4 10 8 16 9 21 1 8 -13 -16 -23 -46 -18 -47 7 -42 88 5 88 15 0 30 -8
36 -19z m88 -28 c2 -26 -1 -43 -7 -43 -6 0 -11 18 -11 41 0 52 -24 48 -28 -4
-5 -53 -22 -46 -22 9 0 45 0 45 33 42 30 -3 32 -6 35 -45z m178 36 c4 -7 0 -9
-14 -5 -33 11 -35 -11 -2 -23 33 -11 37 -22 15 -41 -18 -15 -47 -10 -53 10 -5
13 -3 13 12 1 12 -10 20 -11 28 -3 8 8 4 14 -15 21 -26 10 -35 30 -20 44 10
11 41 8 49 -4z"/>
<path d="M560 745 c-11 -13 -9 -15 15 -15 16 0 25 5 23 12 -7 19 -24 20 -38 3z"/>
<path d="M1334 746 c-9 -23 0 -51 16 -51 10 0 15 10 15 29 0 32 -21 47 -31 22z"/>
<path d="M1654 746 c-9 -23 0 -51 16 -51 10 0 15 10 15 29 0 32 -21 47 -31 22z"/>
<path d="M735 750 c-7 -12 2 -30 16 -30 5 0 9 9 9 20 0 21 -15 27 -25 10z"/>
<path d="M725 670 c3 -5 15 -10 26 -10 10 0 19 5 19 10 0 6 -12 10 -26 10 -14
0 -23 -4 -19 -10z"/>
<path d="M1045 750 c-7 -12 2 -30 16 -30 5 0 9 9 9 20 0 21 -15 27 -25 10z"/>
<path d="M1035 670 c3 -5 15 -10 26 -10 10 0 19 5 19 10 0 6 -12 10 -26 10
-14 0 -23 -4 -19 -10z"/>
<path d="M651 711 c-9 -6 -10 -11 -2 -15 13 -8 31 1 31 15 0 11 -11 11 -29 0z"/>
<path d="M920 745 c-11 -13 -8 -15 15 -15 23 0 26 2 15 15 -7 8 -14 15 -15 15
-1 0 -8 -7 -15 -15z"/>
<path d="M1470 745 c-11 -13 -9 -15 15 -15 16 0 25 5 23 12 -7 19 -24 20 -38
3z"/>
<path d="M2438 812 c-15 -21 -36 -24 -130 -21 -13 0 -59 -1 -103 -3 l-80 -3 2
-44 c4 -76 8 -78 218 -78 199 0 218 5 195 46 -7 14 -7 27 -1 39 10 20 -2 42
-24 42 -5 0 -16 9 -23 20 -15 25 -37 26 -54 2z m32 -39 c0 -34 1 -35 18 -20
10 10 25 17 33 17 8 0 4 -6 -9 -16 l-22 -15 20 -26 c11 -14 17 -29 14 -32 -3
-3 -13 4 -21 17 -19 27 -33 28 -33 2 0 -11 -3 -20 -7 -20 -5 0 -9 29 -9 65 -1
36 2 65 7 65 5 0 9 -16 9 -37z m-304 -35 l7 -33 9 33 c11 40 27 41 34 2 7 -34
24 -30 24 6 0 13 5 24 10 24 13 0 12 -6 -1 -53 -12 -43 -32 -45 -37 -4 -4 33
-22 26 -22 -9 0 -38 -26 -28 -38 15 -14 46 -15 51 -3 51 5 0 13 -15 17 -32z
m175 5 c8 -21 5 -23 -28 -23 -35 0 -36 -1 -21 -17 14 -13 20 -14 32 -4 10 8
16 9 21 1 8 -13 -16 -23 -47 -18 -17 2 -24 11 -26 31 -5 44 4 59 34 55 17 -2
30 -11 35 -25z m87 15 c22 -22 13 -38 -19 -38 -20 0 -29 -4 -26 -12 2 -7 16
-12 31 -10 18 2 25 -1 21 -7 -8 -15 -48 -14 -63 1 -26 26 -7 78 28 78 9 0 21
-5 28 -12z"/>
<path d="M2290 745 c-11 -13 -9 -15 15 -15 16 0 25 5 23 12 -7 19 -24 20 -38
3z"/>
<path d="M2387 754 c-13 -13 -7 -24 14 -24 11 0 19 5 17 12 -5 14 -22 21 -31
12z"/>
<path d="M1837 813 c-13 -12 -8 -130 6 -140 6 -5 39 -9 72 -9 l60 1 3 52 c3
46 0 54 -21 68 -13 8 -31 13 -39 10 -9 -4 -22 1 -31 9 -16 17 -39 21 -50 9z
m33 -23 c0 -5 -4 -10 -10 -10 -5 0 -10 5 -10 10 0 6 5 10 10 10 6 0 10 -4 10
-10z m0 -65 c0 -25 -4 -45 -10 -45 -5 0 -10 20 -10 45 0 25 5 45 10 45 6 0 10
-20 10 -45z m88 -2 c2 -26 -1 -43 -7 -43 -6 0 -11 18 -11 41 0 52 -24 48 -28
-4 -5 -53 -22 -46 -22 9 0 45 0 45 33 42 30 -3 32 -6 35 -45z"/>
<path d="M2025 786 c-25 -18 -32 -98 -11 -115 8 -7 32 -11 53 -9 l38 3 3 52
c3 44 0 53 -20 67 -28 20 -39 20 -63 2z m63 -63 l3 -43 -36 0 c-32 0 -36 3
-33 23 2 14 11 23 26 25 12 2 22 10 22 18 0 11 -7 13 -26 8 -20 -5 -25 -4 -20
5 5 7 20 11 34 9 24 -3 27 -8 30 -45z"/>
<path d="M2045 709 c-4 -6 -5 -13 -2 -16 7 -7 27 6 27 18 0 12 -17 12 -25 -2z"/>
<path d="M1047 583 c457 -2 1209 -2 1670 0 461 1 87 2 -832 2 -919 0 -1296 -1
-838 -2z"/>
<path d="M803 526 c-15 -24 -53 -39 -69 -26 -7 7 -23 10 -34 7 -11 -3 -27 1
-34 9 -18 17 -36 17 -58 0 -11 -8 -35 -11 -65 -9 -58 5 -82 -10 -93 -57 l-8
-35 -2 35 c-4 60 -5 62 -22 73 -12 8 -21 7 -33 -3 -21 -18 -57 -18 -89 0 -34
17 -54 1 -59 -48 l-4 -37 -1 36 c-2 40 -23 65 -47 55 -13 -4 -15 -19 -13 -67
3 -54 6 -65 31 -83 23 -17 32 -18 56 -9 16 6 35 7 42 2 7 -4 19 -3 26 2 7 6
18 7 25 3 19 -12 54 -10 72 5 11 9 16 10 16 2 0 -20 40 -51 66 -51 14 0 43 13
64 30 31 25 40 27 49 16 9 -11 61 -15 81 -6 3 1 10 1 15 0 46 -10 119 -10 131
1 14 12 20 121 8 153 -7 20 -40 21 -51 2z m37 -72 l0 -65 -37 3 c-37 3 -38 4
-38 43 0 36 3 40 28 43 19 2 27 9 27 23 0 10 5 19 10 19 6 0 10 -29 10 -66z
m-628 4 c3 -45 6 -53 23 -53 17 0 20 8 23 53 4 65 22 69 22 4 0 -52 -12 -72
-45 -72 -33 0 -45 20 -45 72 0 65 18 61 22 -4z m208 42 c0 -5 -7 -10 -15 -10
-8 0 -15 5 -15 10 0 6 7 10 15 10 8 0 15 -4 15 -10z m230 0 c0 -5 -4 -10 -10
-10 -5 0 -10 5 -10 10 0 6 5 10 10 10 6 0 10 -4 10 -10z m-106 -37 c-9 -39
-13 -43 -35 -43 -10 0 -19 -4 -19 -10 0 -5 14 -10 31 -10 24 0 30 -4 27 -17
-2 -13 -13 -18 -38 -18 -35 0 -35 0 -36 47 -1 64 -1 64 69 77 4 0 4 -11 1 -26z
m-166 -30 c2 -24 -1 -43 -7 -43 -5 0 -11 17 -13 38 -2 25 -8 37 -18 37 -10 0
-16 -12 -18 -37 -5 -54 -20 -47 -18 7 l1 46 35 -3 c33 -3 35 -5 38 -45z m42 2
c0 -25 -4 -45 -10 -45 -5 0 -10 20 -10 45 0 25 5 45 10 45 6 0 10 -20 10 -45z
m182 29 c-14 -10 -22 -25 -22 -45 0 -16 -5 -29 -10 -29 -6 0 -10 19 -8 45 3
43 5 45 33 45 l29 0 -22 -16z m48 -29 c0 -25 -4 -45 -10 -45 -5 0 -10 20 -10
45 0 25 5 45 10 45 6 0 10 -20 10 -45z m88 -2 c2 -26 -1 -43 -7 -43 -6 0 -11
18 -11 41 0 52 -24 48 -28 -4 -5 -53 -22 -46 -22 9 0 45 0 45 33 42 30 -3 32
-6 35 -45z"/>
<path d="M780 454 c-10 -11 -11 -20 -3 -32 17 -27 38 -20 38 12 0 34 -16 44
-35 20z"/>
<path d="M495 460 c-7 -12 2 -30 16 -30 5 0 9 9 9 20 0 21 -15 27 -25 10z"/>
<path d="M485 380 c3 -5 12 -10 20 -10 8 0 17 5 20 10 4 6 -5 10 -20 10 -15 0
-24 -4 -20 -10z"/>
<path d="M887 533 c-12 -12 -8 -148 5 -161 14 -14 57 -16 77 -3 14 9 56 -2
103 -25 37 -20 64 -17 98 7 16 12 35 19 43 16 8 -3 19 -1 25 5 6 6 16 7 23 3
7 -5 31 -10 54 -12 57 -5 78 19 71 78 -5 48 -30 73 -61 64 -11 -4 -24 -6 -30
-6 -47 4 -78 11 -90 21 -14 11 -37 7 -111 -20 -11 -4 -28 -3 -38 2 -12 7 -26
7 -43 -1 -19 -9 -30 -8 -53 4 -17 9 -30 20 -30 25 0 11 -33 14 -43 3z m33 -33
c0 -13 7 -20 18 -20 24 0 42 -19 42 -45 0 -29 -19 -45 -52 -45 -28 0 -28 0
-28 65 0 37 4 65 10 65 6 0 10 -9 10 -20z m280 0 c0 -5 -7 -10 -15 -10 -8 0
-15 5 -15 10 0 6 7 10 15 10 8 0 15 -4 15 -10z m-46 -37 c-9 -39 -13 -43 -35
-43 -10 0 -19 -4 -19 -10 0 -5 14 -10 31 -10 24 0 30 -4 27 -17 -2 -13 -13
-18 -38 -18 -35 0 -35 0 -36 47 -1 64 -1 64 69 77 4 0 4 -11 1 -26z m-96 5
c22 -22 13 -38 -19 -38 -20 0 -29 -4 -26 -12 2 -7 16 -12 31 -10 18 2 25 -1
21 -7 -8 -15 -48 -14 -63 1 -26 26 -7 78 28 78 9 0 21 -5 28 -12z m132 -33 c0
-25 -4 -45 -10 -45 -5 0 -10 20 -10 45 0 25 5 45 10 45 6 0 10 -20 10 -45z
m94 29 c9 -24 7 -74 -3 -74 -6 0 -11 17 -13 38 -2 25 -8 37 -18 37 -10 0 -16
-12 -18 -37 -4 -54 -20 -47 -18 7 1 43 2 45 32 45 20 0 34 -6 38 -16z m82 4
c5 -8 0 -9 -14 -6 -32 9 -38 -10 -7 -22 30 -11 31 -43 2 -48 -26 -5 -50 6 -42
19 5 8 10 8 18 0 15 -15 27 -14 27 3 0 8 -11 17 -25 20 -24 6 -33 25 -18 39
11 11 51 8 59 -5z"/>
<path d="M924 456 c-9 -23 0 -51 16 -51 10 0 15 10 15 29 0 32 -21 47 -31 22z"/>
<path d="M1105 460 c-7 -12 2 -30 16 -30 5 0 9 9 9 20 0 21 -15 27 -25 10z"/>
<path d="M1095 380 c3 -5 12 -10 20 -10 8 0 17 5 20 10 4 6 -5 10 -20 10 -15
0 -24 -4 -20 -10z"/>
<path d="M1017 464 c-13 -13 -7 -24 14 -24 11 0 19 5 17 12 -5 14 -22 21 -31
12z"/>
<path d="M195 241 c-33 -7 -46 -37 -21 -47 11 -4 16 -19 16 -49 0 -52 21 -75
51 -57 11 7 25 9 32 5 20 -12 169 -13 184 -2 7 7 13 29 13 49 0 30 -6 43 -27
60 -26 20 -37 21 -74 6 -9 -4 -26 3 -43 19 -28 26 -65 30 -131 16z m105 -30
c0 -13 8 -21 23 -23 18 -2 23 -11 28 -45 4 -31 2 -43 -8 -43 -8 0 -12 12 -10
38 1 27 -2 37 -13 37 -10 0 -16 -12 -18 -37 -5 -63 -22 -42 -22 27 0 37 4 65
10 65 6 0 10 -9 10 -19z m-47 2 c-21 -4 -23 -10 -23 -59 0 -32 -4 -54 -11 -54
-7 0 -10 20 -7 55 3 51 2 54 -22 58 -14 2 0 4 30 4 30 0 45 -2 33 -4z m185
-35 c22 -22 13 -38 -19 -38 -20 0 -29 -4 -26 -12 2 -7 16 -12 31 -10 18 2 25
-1 21 -7 -8 -15 -48 -14 -63 1 -26 26 -7 78 28 78 9 0 21 -5 28 -12z"/>
<path d="M397 174 c-13 -13 -7 -24 14 -24 11 0 19 5 17 12 -5 14 -22 21 -31
12z"/>
<path d="M492 238 c-16 -16 -16 -134 1 -145 18 -11 130 -12 145 0 20 16 16
121 -6 140 -16 15 -21 15 -38 2 -25 -19 -53 -19 -60 0 -7 18 -26 19 -42 3z
m28 -28 c0 -14 7 -20 24 -20 26 0 36 -16 36 -61 0 -42 -18 -36 -22 9 -2 25 -8
37 -18 37 -10 0 -16 -12 -18 -37 -5 -63 -22 -42 -22 27 0 37 4 65 10 65 6 0
10 -9 10 -20z m109 -50 c1 -36 -3 -60 -9 -60 -5 0 -10 22 -10 50 0 43 -2 49
-17 43 -16 -6 -16 -5 -4 10 26 32 38 20 40 -43z"/>
<path d="M1362 211 c-46 -42 -53 -71 -26 -109 13 -18 25 -22 73 -22 31 0 62 5
69 12 8 8 15 8 25 0 17 -15 295 -13 315 1 18 14 15 92 -4 108 -19 15 -120 23
-129 9 -4 -6 -15 -5 -30 2 -18 8 -32 8 -48 1 -13 -6 -30 -8 -37 -3 -7 4 -35 6
-64 5 -40 -2 -53 1 -64 16 -19 27 -32 24 -80 -20z m68 -46 l0 -65 -35 0 c-25
0 -37 6 -46 21 -16 31 3 69 36 69 18 0 25 5 25 20 0 11 5 20 10 20 6 0 10 -28
10 -65z m53 10 c-18 -12 -21 -22 -16 -45 3 -19 1 -30 -6 -30 -6 0 -11 18 -11
43 0 39 2 43 27 45 l28 2 -22 -15z m85 3 c22 -22 13 -38 -19 -38 -20 0 -29 -4
-26 -12 2 -7 16 -12 31 -10 18 2 25 -1 21 -7 -8 -15 -48 -14 -63 1 -26 26 -7
78 28 78 9 0 21 -5 28 -12z m93 -34 l5 -42 -35 2 c-48 2 -57 33 -11 42 38 8
34 30 -4 26 -19 -2 -25 1 -21 8 4 6 19 10 33 8 23 -3 28 -9 33 -44z m147 -1
c2 -24 -1 -43 -7 -43 -5 0 -11 16 -13 35 -4 46 -22 46 -26 0 -4 -46 -20 -45
-24 3 -2 25 -8 37 -18 37 -10 0 -16 -12 -18 -37 -4 -53 -18 -47 -17 7 l0 44
60 -2 60 -2 3 -42z"/>
<path d="M1370 164 c-10 -11 -11 -20 -3 -32 17 -27 38 -20 38 12 0 34 -16 44
-35 20z"/>
<path d="M1527 174 c-13 -13 -7 -24 14 -24 11 0 19 5 17 12 -5 14 -22 21 -31
12z"/>
<path d="M1615 129 c-4 -6 -5 -12 -2 -15 7 -7 37 7 37 17 0 13 -27 11 -35 -2z"/>
<path d="M2272 238 c-16 -16 -16 -132 1 -146 20 -17 169 -13 190 5 15 15 19
15 35 1 14 -14 51 -16 237 -16 121 1 225 5 232 10 7 5 14 5 17 -1 10 -15 173
-12 186 4 6 8 10 40 8 76 -4 80 -22 95 -68 55 -22 -18 -38 -25 -49 -20 -9 4
-25 7 -36 6 -131 -5 -191 0 -208 17 -16 16 -45 13 -56 -6 -9 -17 -11 -16 -33
5 -30 27 -44 28 -60 3 -6 -10 -17 -17 -24 -14 -7 2 -22 0 -33 -6 -14 -8 -27
-8 -45 0 -21 10 -30 9 -52 -5 -16 -11 -24 -24 -21 -35 2 -10 -2 -26 -10 -37
-13 -18 -14 -17 -8 8 5 21 1 33 -20 54 -25 25 -36 26 -76 10 -10 -5 -28 3 -47
18 -34 29 -43 31 -60 14z m28 -31 c0 -18 5 -23 26 -22 31 0 46 -28 33 -62 -6
-18 -16 -23 -43 -23 l-35 0 1 65 c1 36 5 65 10 65 4 0 8 -10 8 -23z m405 0
c-5 -20 -2 -23 22 -22 26 0 28 -3 31 -42 2 -26 -1 -43 -7 -43 -6 0 -11 18 -11
40 0 22 -4 40 -8 40 -18 0 -31 -25 -25 -51 3 -18 1 -29 -6 -29 -7 0 -11 24
-11 65 0 37 4 65 10 65 6 0 8 -10 5 -23z m455 -42 l0 -65 -35 0 c-42 0 -60 25
-45 64 7 19 17 26 35 26 18 0 25 5 25 20 0 11 5 20 10 20 6 0 10 -28 10 -65z
m-360 45 c0 -5 -4 -10 -10 -10 -5 0 -10 5 -10 10 0 6 5 10 10 10 6 0 10 -4 10
-10z m-350 -39 c15 -29 13 -31 -27 -31 -35 0 -36 -1 -21 -17 14 -13 20 -14 32
-4 10 8 16 9 21 1 8 -13 -16 -23 -47 -18 -17 2 -24 11 -26 31 -2 16 -1 35 2
43 8 21 54 17 66 -5z m128 -28 l3 -43 -36 0 c-32 0 -36 3 -33 23 2 14 11 23
26 25 29 4 22 28 -7 25 -14 -2 -20 1 -16 8 4 5 19 9 33 7 24 -3 27 -8 30 -45z
m90 27 c5 -13 3 -13 -11 -1 -14 11 -20 11 -32 1 -8 -7 -15 -18 -15 -25 0 -7 7
-18 15 -25 12 -10 18 -10 32 1 14 12 16 12 11 -1 -2 -8 -17 -16 -31 -18 -35
-4 -55 33 -37 67 13 26 60 26 68 1z m132 -25 c0 -25 -4 -45 -10 -45 -5 0 -10
20 -10 45 0 25 5 45 10 45 6 0 10 -20 10 -45z m90 26 c15 -29 13 -31 -27 -31
-35 0 -36 -1 -21 -17 14 -13 20 -14 32 -4 10 8 16 9 21 1 8 -13 -16 -23 -47
-18 -17 2 -24 11 -26 31 -2 16 -1 35 2 43 8 21 54 17 66 -5z m37 -11 c3 -16 9
-30 13 -30 5 0 11 14 15 30 4 17 11 30 16 30 6 0 7 -10 3 -22 -25 -81 -35 -86
-58 -28 -19 48 -19 50 -6 50 6 0 13 -13 17 -30z m131 3 c3 -20 -1 -23 -29 -23
-31 0 -32 -1 -17 -17 15 -14 19 -14 34 -2 15 12 17 12 12 -1 -2 -8 -16 -16
-31 -18 -34 -4 -51 26 -37 63 8 21 16 26 38 23 19 -2 28 -9 30 -25z"/>
<path d="M2313 173 c-7 -3 -13 -15 -13 -28 0 -24 16 -35 38 -28 6 3 12 15 12
28 0 24 -16 35 -37 28z"/>
<path d="M3100 164 c-10 -11 -11 -20 -3 -32 17 -27 38 -20 38 12 0 34 -16 44
-35 20z"/>
<path d="M2400 165 c-11 -13 -9 -15 15 -15 16 0 25 5 23 12 -7 19 -24 20 -38
3z"/>
<path d="M2531 131 c-9 -6 -10 -11 -2 -15 13 -8 31 1 31 15 0 11 -11 11 -29 0z"/>
<path d="M2840 165 c-11 -13 -9 -15 15 -15 16 0 25 5 23 12 -7 19 -24 20 -38
3z"/>
<path d="M3010 165 c-11 -13 -8 -15 15 -15 23 0 26 2 15 15 -7 8 -14 15 -15
15 -1 0 -8 -7 -15 -15z"/>
<path d="M1250 231 c-37 -20 -78 -28 -95 -19 -11 7 -25 7 -39 0 -15 -6 -28 -6
-40 0 -9 5 -31 6 -49 2 -18 -4 -36 -6 -42 -4 -26 8 -114 9 -120 1 -3 -6 -16
-6 -35 0 -19 7 -35 7 -46 1 -12 -7 -26 -6 -41 1 -54 25 -109 -68 -67 -114 16
-17 29 -19 153 -16 120 3 139 2 163 -15 26 -18 29 -18 53 -2 20 13 49 17 133
17 59 0 113 4 120 9 12 11 17 104 6 132 -7 17 -30 20 -54 7z m40 -21 c0 -5 -4
-10 -10 -10 -5 0 -10 5 -10 10 0 6 5 10 10 10 6 0 10 -4 10 -10z m-535 -31
c11 -16 -3 -23 -19 -10 -20 17 -36 6 -36 -24 0 -30 16 -41 36 -24 16 13 30 6
19 -10 -8 -15 -48 -14 -63 1 -15 15 -15 51 0 66 15 15 55 16 63 1z m83 -1 c30
-30 3 -83 -39 -76 -45 6 -42 88 4 88 13 0 28 -5 35 -12z m150 -35 c2 -24 -1
-43 -7 -43 -5 0 -11 16 -13 35 -2 20 -7 35 -13 35 -5 0 -11 -15 -13 -35 -4
-46 -20 -45 -24 3 -2 25 -8 37 -18 37 -10 0 -16 -12 -18 -37 -4 -53 -18 -47
-17 7 l0 44 60 -2 60 -2 3 -42z m90 35 c27 -27 7 -78 -30 -78 -10 0 -18 -7
-18 -15 0 -8 -4 -15 -10 -15 -6 0 -10 27 -10 60 0 59 0 60 28 60 15 0 33 -5
40 -12z m88 1 c5 -9 -1 -10 -20 -5 -34 8 -35 -11 0 -24 16 -7 24 -16 22 -28
-4 -20 -46 -29 -62 -12 -8 10 -5 11 17 6 34 -8 36 11 2 24 -24 9 -32 29 -18
43 11 11 51 8 59 -4z m82 -9 c5 -13 3 -13 -11 -1 -14 11 -20 11 -32 1 -19 -16
-19 -34 0 -50 12 -10 19 -10 27 -2 17 17 33 15 18 -3 -16 -20 -56 -19 -64 1
-8 21 -8 59 1 68 12 12 56 2 61 -14z m42 -25 c0 -25 -4 -45 -10 -45 -5 0 -10
20 -10 45 0 25 5 45 10 45 6 0 10 -20 10 -45z"/>
<path d="M790 164 c-10 -11 -11 -20 -3 -32 17 -27 38 -20 38 12 0 34 -16 44
-35 20z"/>
<path d="M1034 166 c-9 -23 0 -51 16 -51 10 0 15 10 15 29 0 32 -21 47 -31 22z"/>
<path d="M2173 229 c-13 -13 -86 -22 -153 -19 -171 7 -180 4 -180 -66 0 -23 6
-46 13 -51 6 -4 94 -9 194 -10 148 -2 184 1 193 12 10 12 10 18 -1 31 -10 13
-10 19 0 36 11 18 10 25 -7 47 -22 30 -42 37 -59 20z m27 -24 c0 -8 8 -16 18
-16 16 -1 16 -2 -1 -6 -14 -4 -17 -13 -15 -36 2 -19 8 -31 16 -29 6 1 12 -3
12 -9 0 -6 -10 -9 -22 -7 -19 2 -23 9 -22 38 0 19 -4 38 -10 42 -8 5 -7 8 1 8
7 0 10 7 7 15 -4 8 -1 15 5 15 6 0 11 -7 11 -15z m-212 -62 c2 -26 -1 -43 -7
-43 -6 0 -11 18 -11 41 0 52 -24 48 -28 -4 -4 -48 -20 -48 -24 1 -2 25 -8 37
-18 37 -11 0 -14 -9 -12 -37 2 -23 -1 -38 -7 -38 -6 0 -11 20 -11 45 l0 45 58
-2 57 -3 3 -42z m42 6 c0 -52 24 -48 28 4 5 53 22 46 22 -9 0 -45 0 -45 -32
-42 -31 3 -33 6 -36 46 -2 25 1 42 7 42 6 0 11 -18 11 -41z m126 30 c4 -7 0
-9 -14 -5 -11 4 -23 2 -27 -3 -3 -6 5 -13 19 -17 30 -7 40 -28 21 -44 -18 -15
-47 -9 -53 10 -5 13 -3 13 12 1 12 -10 20 -11 28 -3 8 8 4 14 -15 21 -26 10
-35 30 -20 44 10 11 41 8 49 -4z"/>
</g>
</svg>
